<svg xmlns:xlink="http://www.w3.org/1999/xlink" xmlns="http://www.w3.org/2000/svg" class="icon icon-viaBOVAG_v2 " viewBox="0 0 24 24" width="120"  height="120" ><defs><symbol viewBox="0 0 146.3 19.9" id="viaBOVAG_v2"><path d="M16.6 0h-1.3c-.3 0-.5.2-.5.5v2.1c0 .3.2.5.5.5h1.3c.3 0 .5-.2.5-.5V.5c.1-.3-.2-.5-.5-.5zm-5.2 5.4H9.9c-.2 0-.4.2-.5.5L6.5 17.2c-.2.6-.4.8-.6.8-.3 0-.5-.2-.6-.8l-3-11.3c0-.3-.2-.5-.5-.5H.4c-.2 0-.4.2-.4.5V6l3.3 11.8c.5 1.6 1.5 2.1 2.5 2.1s2.1-.4 2.5-2.1L11.7 6v-.2c.1-.2-.1-.4-.3-.4zm5.2 0h-1.2c-.3 0-.5.2-.5.5v13.3c0 .3.2.5.5.5h1.2c.3 0 .5-.2.5-.5V5.9c0-.3-.2-.5-.5-.5zm14.3.4c-1.4-.3-3.2-.6-4.8-.6-3.9 0-5.7 2.5-5.7 6.4v1.8c0 3.9 1.8 6.4 5.7 6.4 1.6 0 3.4-.3 4.8-.6.5-.1.5-.3.5-.6V6.4c.1-.3 0-.5-.5-.6zm-1.7 11.9c-.7.1-2 .3-3 .3-2.6 0-3.4-1.8-3.4-4.5v-1.8c0-2.8.8-4.5 3.4-4.5 1.1 0 2.3.1 3 .3v10.2zM85.5.4h-3.6c-.3 0-.4.2-.5.5l-3.3 15c-.1.3-.1.4-.4.4-.2 0-.3-.1-.4-.4L74 .9c-.1-.3-.3-.5-.5-.5H70c-.3 0-.5.2-.5.4v.1L73.4 17c.6 2.5 2.5 2.9 4.3 2.9 1.8 0 3.7-.4 4.3-2.9L85.9.9V.8c0-.3-.2-.4-.4-.4zM96.6.2h-1.9c-3.5 0-6.3 1-6.3 5.7v13.3c0 .3.2.5.5.5h3.4c.3 0 .5-.2.5-.5v-6.3h5.6v6.3c0 .3.2.5.5.5h3.4c.3 0 .5-.2.5-.5V5.9c.1-4.7-2.7-5.7-6.2-5.7zm1.9 9h-5.6V5.9c0-1.4.4-1.9 1.9-1.9h1.9c1.5 0 1.9.4 1.9 1.9v3.3zm-51.4.7c1.4-.7 2.2-2.1 2.2-3.8v-.5c0-4.1-3.3-5.4-8.2-5.4-1.7 0-3.8.2-4.7.3-1 .2-1.4.5-1.4 1.7V18c0 1.2.4 1.5 1.4 1.7 1 .2 3 .3 4.8.3 4.5 0 8.2-1.2 8.2-5.8v-.4c.1-1.9-.9-3.2-2.3-3.9zm-7.6-6.1h2c2.7 0 3.6.6 3.6 2.1v.4c0 1.1-.6 2.1-2.7 2.1h-2.9V3.8zM45.1 14c0 1.5-.9 2.3-3.5 2.3h-2.1v-4.9h2.9c2.1 0 2.8 1.1 2.8 2.3v.3zM119.3.8c-1-.2-2.8-.6-5.4-.6-3.8 0-7.9 1.7-7.9 8.3v3.2c0 6.6 4.4 8.3 7.4 8.3 2.6 0 4.4-.3 5.8-.5.4-.1.5-.2.5-.6v-8.7c0-.3-.2-.5-.5-.5h-3.3c-.3 0-.5.2-.5.5v6c-.6.1-1.3.1-2 .1-1.3 0-2.9-.8-2.9-4.4V8.5c0-3.4 1.3-4.4 3.4-4.4 2.2 0 4.2.2 5.4.2h.1c.2 0 .4-.1.4-.3V1.1c0-.2-.2-.3-.5-.3zM59.7.2C55.4.2 52 2.5 52 8.5v3.1c0 6 3.4 8.3 7.7 8.3 4.3 0 7.7-2.3 7.7-8.3V8.5c0-6-3.4-8.3-7.7-8.3zM63 11.6c0 3.1-1 4.4-3.2 4.4s-3.2-1.3-3.2-4.4V8.5c0-3.1 1-4.4 3.2-4.4S63 5.4 63 8.5v3.1zm72.7-6.1h-1.8c-1.8 0-4.5.7-4.5 4.7v9.3c0 .3.2.5.5.5h1.4c.3 0 .5-.2.5-.5v-9.3c0-2 .5-2.7 2.3-2.7h1.8c1.8 0 2.3.8 2.3 2.7v9.3c0 .3.2.5.5.5h1.4c.3 0 .5-.2.5-.5v-9.3c-.3-4-3.1-4.7-4.9-4.7zM145.9.4h-1.4c-.3 0-.5.2-.5.5v18.5c0 .3.2.5.5.5h1.4c.3 0 .5-.3.5-.5V.9c-.1-.3-.3-.5-.5-.5zm-20.5 16.1h-1.2c-.3 0-.5.2-.5.5v2.4c0 .3.2.5.5.5h1.2c.3 0 .5-.2.5-.5V17c0-.3-.2-.5-.5-.5z"></path></symbol></defs>
    <use xlink:href="#viaBOVAG_v2" fill="#FFFFFF"></use>
</svg>