<svg xmlns="http://www.w3.org/2000/svg" fill="none" viewBox="0 0 38 57">
    <path fill="#fff" d="M0 0h38v57H0z"/>
    <path fill="#FFD500" fill-rule="evenodd" d="M3.167 53.833h31.666v-19H3.167v19z" clip-rule="evenodd"/>
    <path fill="#000" fill-rule="evenodd" d="M13.375 48.306c0 .598.182.73.547.73.347 0 .53-.132.53-.73v-8.004c0-.598-.183-.73-.53-.73-.365 0-.547.132-.547.73v8.004zm-1.756-8.153c0-1.544 1.21-1.993 2.286-1.993 1.094 0 2.304.449 2.304 1.993v8.303c0 1.543-1.21 1.992-2.304 1.992-1.076 0-2.286-.449-2.286-1.992v-8.303zm-3.761 8.651h.348c.497 0 .73-.199.73-.93v-2.241c0-.73-.233-.931-.73-.931h-.348v4.102zm0-5.513h.398c.447 0 .629-.198.629-.88v-1.793c0-.682-.182-.88-.63-.88h-.397v3.553zM6.1 38.392h2.487c1.408 0 2.054.864 2.054 2.125v1.877c-.016 1.03-.613 1.345-1.624 1.578v.033c1.11.217 1.674.514 1.674 1.843v1.877c0 1.412-.647 2.492-2.121 2.492H6.1V38.392zm12.942 4.932l-.547-4.932h-1.757l1.326 11.824h2.652l1.392-11.824H20.35l-.529 5.33-.113 1.336c-.084.968-.168 1.938-.236 2.916h-.032a75.093 75.093 0 01-.198-2.312 73.289 73.289 0 00-.2-2.338zm6.065 2.143l-.365-4.916h-.116l-.43 4.916h.911zm-1.707-7.075h2.635l1.342 11.825h-1.773l-.331-3.206h-1.243l-.38 3.206h-1.592l1.342-11.825zm9.13 1.76v2.558h-1.756v-2.408c0-.598-.183-.73-.53-.73-.365 0-.547.132-.547.73v8.004c0 .598.182.73.547.73.347 0 .53-.132.53-.73v-2.568h-.503v-1.415h2.259v4.133c0 1.543-1.21 1.992-2.303 1.992-1.077 0-2.287-.449-2.287-1.992v-8.303c0-1.544 1.21-1.993 2.287-1.993 1.094 0 2.303.449 2.303 1.993z" clip-rule="evenodd"/>
    <path fill="#000" d="M20.251 22.764A3.969 3.969 0 1122.967 19c0 .35-.05.686-.134 1.009l6.483 5.963a12.394 12.394 0 002.134-6.971c0-6.878-5.576-12.452-12.452-12.452S6.548 12.123 6.548 19c0 6.876 5.574 12.45 12.45 12.45 2.93 0 5.623-1.016 7.75-2.71l-6.497-5.976z"/>
    <path fill="#000" fill-rule="evenodd" d="M3.125 13.842A16.728 16.728 0 0113.841 3.125H3.125v10.717zm0 21.033V24.159a16.726 16.726 0 0010.716 10.716H3.125zm31.75 0H24.156a16.729 16.729 0 0010.717-10.716v10.716zm0-21.034A16.727 16.727 0 0024.156 3.127h10.717v10.716z" clip-rule="evenodd"/>
    <path fill="#E2001A" d="M20.252 22.764A3.969 3.969 0 1122.968 19c0 .35-.05.686-.135 1.009l4.157 3.824A9.289 9.289 0 0028.337 19c0-5.158-4.181-9.34-9.339-9.34-5.156 0-9.337 4.182-9.337 9.34a9.338 9.338 0 0014.76 7.6l-4.17-3.836z"/>
    <path fill="#000" fill-rule="evenodd" d="M19 16.95a2.048 2.048 0 00-2.048 2.047 2.05 2.05 0 004.096 0A2.048 2.048 0 0019 16.95zm0 3.245a1.196 1.196 0 110-2.394 1.197 1.197 0 110 2.394zm-1.197-1.199z" clip-rule="evenodd"/>
</svg>
